PathFileType	4	(X/Y/Z)	C:\Users\WrightLab\Desktop\Jo\P1.2Trial32.trc
DataRate	CameraRate	NumFrames	NumMarkers	Units	OrigDataRate	OrigDataStartFrame	OrigNumFrames
100.00	100.00	       16	19	mm	100.00	182	       724
Frame#	Time	Headset_Front			Headset_Back			Headset_Left			Headset_Right			Left_Shoulder			Right_Shoulder			Sternum			C7			Left Elbow			Right Elbow			Left Wrist			Right Wrist			Left ASIS			Right ASIS			S2			Left Knee			Right Knee			Left Ankle			Right Ankle			
		X1	Y1	Z1	X2	Y2	Z2	X3	Y3	Z3	X4	Y4	Z4	X5	Y5	Z5	X6	Y6	Z6	X7	Y7	Z7	X8	Y8	Z8	X9	Y9	Z9	X10	Y10	Z10	X11	Y11	Z11	X12	Y12	Z12	X13	Y13	Z13	X14	Y14	Z14	X15	Y15	Z15	X16	Y16	Z16	X17	Y17	Z17	X18	Y18	Z18	X19	Y19	Z19	

182	1.810	-353.75143	1276.30334	-1151.54968	-323.34949	1118.58521	-1272.65002				-429.68811	1345.69043	-1257.35498	-82.61703	1179.98364	-1332.09949	-399.22766	360.44797	-1455.29651							-14.87461	892.36206	-1387.96265				-6.16240	673.77325	-1274.29272	-576.69464	678.59302	-1471.07788	-199.13789	807.42242	-1257.26514	-450.09836	797.10156	-1371.86523	-203.61932	870.92596	-1564.70886	-266.18475	434.40228	-1180.62329	-548.48859	949.31262	-1517.02234	-268.99118	116.17422	-1097.25891				
183	1.820	-355.88840	1276.13977	-1145.11206	-325.94785	1117.69043	-1268.41064				-431.68918	1346.65759	-1254.21741	-85.15829	1178.99255	-1326.08081	-401.18671	359.53891	-1453.61316							-18.27528	890.75543	-1379.97449				-9.19224	672.68756	-1268.43628	-577.49054	680.65686	-1467.87891	-204.36311	806.97845	-1253.78979	-452.68597	794.62189	-1369.34753	-205.50833	870.28857	-1558.14404	-270.99188	434.55469	-1172.42578	-550.27820	949.44775	-1512.75537	-274.01035	117.89020	-1090.25562				
184	1.830	-357.22147	1275.82227	-1138.23108	-328.91949	1115.62854	-1264.25500				-432.78146	1346.79346	-1249.57800	-86.96651	1176.97632	-1317.64331	-402.85855	357.55014	-1453.73450							-21.63602	888.92633	-1372.41052				-12.20601	670.70563	-1261.80737	-579.79626	680.37885	-1464.55933	-206.88678	802.18488	-1251.47168	-455.58173	795.07690	-1362.62439	-207.49457	869.76569	-1551.61841	-275.20624	431.51312	-1175.24609	-552.40607	949.45331	-1508.08997	-279.38864	118.12762	-1083.78601				
185	1.840	-358.72726	1275.41541	-1130.80750	-331.37592	1114.77783	-1259.28662				-435.10696	1345.50732	-1239.62646	-89.97818	1176.49133	-1312.93164	-404.28409	354.73813	-1454.91846							-24.42859	887.47363	-1367.13086				-15.10655	668.46112	-1256.10291	-581.17334	680.36115	-1462.02991	-210.71269	803.21179	-1239.98132	-457.86472	794.40283	-1360.87000	-209.67148	868.72156	-1544.56335	-279.89462	433.02695	-1159.81116	-554.65186	949.47144	-1503.00366	-283.73459	117.71788	-1079.44019				
186	1.850	-360.94125	1275.25342	-1123.86572	-334.23767	1112.75024	-1253.64514				-436.13974	1345.68884	-1234.80078	-91.81047	1174.46887	-1304.58594	-407.44376	357.72086	-1445.75500							-27.04208	884.99170	-1359.53735				-18.29547	666.32208	-1248.25916	-583.43463	679.31934	-1456.46753	-215.50270	802.29523	-1230.36316	-460.70847	794.10126	-1353.61609	-211.87634	867.52386	-1537.06567	-285.35141	431.55762	-1159.14209	-556.93311	949.43982	-1497.72266	-288.00375	117.01119	-1073.48401				
187	1.860	-363.81644	1275.35071	-1117.40295	-336.19141	1112.47229	-1247.02222				-438.73419	1346.05298	-1228.43066	-94.06188	1172.40710	-1296.14526	-410.18671	359.09900	-1436.85254							-29.63487	883.54291	-1353.66675				-21.65741	664.36462	-1241.19299	-585.20062	679.36700	-1452.53076	-220.56914	800.26892	-1224.15442	-463.57220	792.83203	-1348.91064	-214.27722	867.04462	-1530.47424	-290.17465	429.57297	-1157.12793				-290.48453	115.03976	-1069.82874				
188	1.870	-365.77811	1275.28699	-1109.46533	-509.18805	1192.37842	-1393.51819				-439.73190	1344.78162	-1219.00464	-96.17435	1170.60291	-1288.16577	-561.27448	950.27460	-1487.70764							-32.07959	882.02124	-1347.57910				-24.68492	662.13159	-1234.43323	-587.20087	679.16553	-1447.84888	-223.46706	798.28876	-1223.70337	-467.04102	792.88257	-1343.57104	-216.77951	865.99945	-1522.83081	-295.06274	430.27829	-1144.25134				-292.94757	112.37889	-1065.49402				
189	1.880	-367.48682	1274.78235	-1101.94519							-441.28613	1345.09424	-1213.34790	-98.85763	1168.81934	-1280.07935	-563.57880	950.36597	-1481.59912	-341.30023	1110.24316	-1230.32910				-36.58046	879.20245	-1336.96814				-28.40636	660.36353	-1227.49866	-589.97607	678.87079	-1442.08557	-227.63785	795.75317	-1213.97607	-470.35272	792.41846	-1338.59229	-219.38054	864.90601	-1514.77600	-301.02112	428.16714	-1140.37500				-296.27310	108.13368	-1063.54517				
190	1.890	-369.40445	1273.92517	-1094.44141	-513.01349	1190.74866	-1376.41345				-442.90576	1344.30212	-1204.32202	-100.73425	1166.80420	-1271.87170				-344.39258	1111.81641	-1218.44812				-39.41593	877.44330	-1329.17822				-31.85991	658.45288	-1219.80774	-593.12842	679.09540	-1436.92151	-231.07201	796.02844	-1202.38184	-473.36035	791.93066	-1333.21252	-222.00722	863.58344	-1506.65186	-305.89792	428.43265	-1130.41260				-298.11166	105.11589	-1061.47144				
191	1.900	-371.06726	1273.35681	-1085.75513							-444.50729	1343.54541	-1195.18262	-102.83740	1165.48584	-1264.54688				-347.27344	1110.13330	-1209.52527				-42.31487	875.73480	-1321.25989				-35.34388	655.89679	-1212.88513	-597.86285	678.16791	-1438.57446	-236.77667	796.03619	-1193.64954	-477.26007	792.76215	-1322.86584	-224.65396	862.58826	-1498.39844	-312.47995	425.49683	-1128.70215				-301.12149	99.87897	-1059.23157				
192	1.910	-373.35892	1272.98071	-1078.37024							-446.28345	1344.80615	-1190.77502	-104.99512	1163.12280	-1254.91260				-349.24039	1108.68298	-1202.87183				-44.42878	873.58252	-1315.84338				-39.30261	653.85382	-1204.61926	-599.22461	680.83887	-1427.43286	-241.23827	792.53339	-1192.64526	-480.88916	791.84882	-1315.58704	-227.35938	862.03650	-1490.57141	-317.21542	421.90182	-1126.30762	-569.89923	951.33313	-1462.44788	-303.10532	97.08430	-1058.11169				
193	1.920	-376.14990	1273.69983	-1070.60498							-447.93143	1344.72290	-1182.29321	-107.90390	1162.17737	-1249.26099				-351.97763	1108.93921	-1191.56604				-48.24340	871.64679	-1305.02576				-43.10597	651.97546	-1196.66003	-601.19287	680.85632	-1421.20142	-244.41852	789.51093	-1184.78821	-484.33426	791.93182	-1308.48694	-230.11549	860.71735	-1481.49792	-322.93738	422.99713	-1116.84607	-572.10620	951.51563	-1455.04968	-305.04700	94.78517	-1054.60059				
194	1.930	-378.15860	1273.84302	-1062.15930	-520.88403	1192.54749	-1348.48047				-449.41577	1344.42432	-1174.02698	-110.06023	1161.18250	-1241.43738	-219.06781	1362.96057	-1168.95007	-354.99155	1108.78735	-1182.59631				-51.00482	869.77881	-1297.42493				-47.20800	650.00781	-1186.94214	-606.32477	680.39056	-1413.29358	-247.84198	790.17938	-1175.47424	-487.29956	790.81360	-1305.91077	-232.86725	860.28546	-1473.14587	-329.14725	420.10501	-1109.11353	-574.11890	952.14130	-1447.78198	-309.09702	95.12627	-1045.17932				
195	1.940	-380.65884	1273.97131	-1053.36780	-523.46252	1192.99329	-1339.17883				-451.08401	1345.25403	-1165.20667	-112.15385	1159.05188	-1230.91797				-357.10898	1107.94421	-1176.13794				-54.35910	868.75879	-1289.93860				-51.21042	649.06262	-1179.00891	-608.64624	682.33289	-1406.53418	-252.66782	790.53046	-1163.14063	-490.74866	792.07471	-1297.16882	-235.66576	859.81561	-1464.12549	-332.14575	419.84256	-1101.57251	-576.01019	953.18347	-1440.54919	-312.77707	94.47541	-1040.03699				
196	1.950	-381.53421	1274.33948	-1045.22974							-452.92505	1345.97131	-1156.35498	-114.28822	1158.62988	-1222.97839				-359.26825	1107.49463	-1167.43591				-58.79543	866.40796	-1278.55054				-56.12725	647.19073	-1168.88293	-611.47394	683.81299	-1401.12280	-257.64963	789.40540	-1153.10815	-493.99664	792.10803	-1289.19238	-238.56105	859.94427	-1455.34033	-336.40573	418.34482	-1097.44153	-577.86981	954.75092	-1433.71118	-316.31134	92.83501	-1034.73682				
197	1.960	-383.10437	1275.29712	-1036.08960	-527.46411	1194.14148	-1320.23792				-455.24307	1347.10242	-1147.59851	-116.98093	1157.35876	-1212.12317				-362.38199	1109.45825	-1157.05872				-61.43596	866.38403	-1270.08350				-60.40882	645.65118	-1161.02710	-614.85071	685.97906	-1395.06567	-262.29074	789.15759	-1146.20813	-497.51819	794.82019	-1279.85889	-241.48415	860.59985	-1446.68323	-341.32254	418.94348	-1088.80591	-579.96008	956.25537	-1426.13977	-319.21234	92.28062	-1030.92969				
